<?xml version="1.0" encoding="UTF-8"?>
<svg width="100px" height="100px" viewBox="0 0 100 100" version="1.1" xmlns="http://www.w3.org/2000/svg" xmlns:xlink="http://www.w3.org/1999/xlink">
    <title>DUO-logo-swash</title>
    <g id="DUO-logo-swash" stroke="none" stroke-width="1" fill="none" fill-rule="evenodd">
        <path d="M61.6,17.1 C63.3,22.5 68.3,26.4 74.2,26.4 C81.5,26.4 87.4,20.5 87.4,13.2 C87.4,5.9 81.5,0 74.2,0 C68,0 62.8,4.3 61.4,10 L34.7,10 C22.8,10 13,19.7 13,31.7 C13,43.6 22.7,53.4 34.7,53.4 L37.1,53.4 C38.6,59 43.7,63.2 49.8,63.2 C55.9,63.2 61,59 62.5,53.4 L65.4,53.4 C73.5,53.4 80,60 80,68 C80,76.1 73.4,82.6 65.4,82.6 L38.7,82.6 C36.9,77.4 32,73.6 26.2,73.6 C18.9,73.6 13,79.5 13,86.8 C13,94.1 18.9,100 26.2,100 C32.5,100 37.8,95.6 39.1,89.7 L65.5,89.7 C77.4,89.7 87.2,80 87.2,68 C87.2,56.1 77.5,46.3 65.5,46.3 L62.6,46.3 C61,40.8 55.9,36.8 50,36.8 C44,36.8 39,40.8 37.4,46.3 L34.9,46.3 C26.8,46.3 20.3,39.7 20.3,31.7 C20.3,23.7 26.9,17.1 34.9,17.1 L61.6,17.1 Z M74.2,7.1 C70.8,7.1 68.1,9.8 68.1,13.2 C68.1,16.6 70.8,19.3 74.2,19.3 C77.6,19.3 80.3,16.6 80.3,13.2 C80.3,9.8 77.6,7.1 74.2,7.1 Z M43.8,50 C43.8,46.6 46.5,43.9 49.9,43.9 C53.3,43.9 56,46.6 56,50 C56,53.4 53.3,56.1 49.9,56.1 C46.5,56.1 43.8,53.4 43.8,50 Z M20.1,86.8 C20.1,83.4 22.8,80.7 26.2,80.7 C29.6,80.7 32.3,83.4 32.3,86.8 C32.3,90.2 29.6,92.9 26.2,92.9 C22.8,92.9 20.1,90.2 20.1,86.8 Z" id="Shape" fill="#3CE35F"></path>
    </g>
</svg>