<svg xmlns="http://www.w3.org/2000/svg" xmlns:xlink="http://www.w3.org/1999/xlink" width="100" height="100" viewBox="0 0 100 100">
  <defs>
    <clipPath id="clip-path">
      <rect id="Rectangle_856" data-name="Rectangle 856" width="100" height="100" transform="translate(0 3.313)" fill="#fff" stroke="#707070" stroke-width="1"/>
    </clipPath>
    <linearGradient id="linear-gradient" x1="0.397" y1="0.186" x2="1" y2="0.936" gradientUnits="objectBoundingBox">
      <stop offset="0" stop-color="#fe2caf"/>
      <stop offset="1" stop-color="#5264f9"/>
    </linearGradient>
    <linearGradient id="linear-gradient-2" x1="-0.292" y1="0.441" x2="1.452" y2="0.546" gradientUnits="objectBoundingBox">
      <stop offset="0" stop-color="#fe2caf"/>
      <stop offset="0.527" stop-color="#a349d6"/>
      <stop offset="1" stop-color="#fe2caf"/>
    </linearGradient>
    <clipPath id="clip-DUO-logo-ozone">
      <rect width="100" height="100"/>
    </clipPath>
  </defs>
  <g id="DUO-logo-ozone" clip-path="url(#clip-DUO-logo-ozone)">
    <rect width="100" height="100" fill="#fff"/>
    <g id="DUO-logo" transform="translate(0)">
      <g id="logo" transform="translate(1.629)">
        <path id="Shape" d="M78.465,69.874a40.445,40.445,0,0,1-7.282,5.375H30.939a40.445,40.445,0,0,1-7.282-5.375Zm8.255-10.75a40.342,40.342,0,0,1-3.41,5.375h-64.5a40.341,40.341,0,0,1-3.41-5.375Zm3.546-9.406a40,40,0,0,1-1.693,5.375H13.548a40,40,0,0,1-1.693-5.375Zm1.081-8.063a40.487,40.487,0,0,1-.535,5.375h-79.5a40.486,40.486,0,0,1-.535-5.375ZM51.061,0a40.31,40.31,0,0,1,40.3,39.645l.005.667H64.5l0-.222a13.436,13.436,0,0,0-26.869,0l0,.222H10.752l.005-.667A40.31,40.31,0,0,1,51.061,0Z" transform="translate(-2.69 0)" fill-rule="evenodd" fill="url(#linear-gradient)"/>
        <path id="Combined-Shape" d="M48.371,110.064a8.736,8.736,0,1,1-8.576,8.734A8.658,8.658,0,0,1,48.371,110.064Zm39.794,0a8.658,8.658,0,0,1,8.576,8.734,8.98,8.98,0,0,1-.247,2.1H84.208a4.453,4.453,0,0,0,3.957,2.446,4.4,4.4,0,0,0,3.005-1.187l.09-.086,2.856,3.02a8.479,8.479,0,0,1-5.95,2.445,8.736,8.736,0,0,1,0-17.469Zm-79.589,0a8.736,8.736,0,0,1,0,17.469,8.736,8.736,0,0,1,0-17.469Zm59.692,0a7.961,7.961,0,0,1,7.889,7.9v9.217H72.042V118.1A3.773,3.773,0,1,0,64.5,118v9.184H60.378v-16.77h4.117v.628A7.744,7.744,0,0,1,68.268,110.064Zm-31.76.5v4.117l-9.657,8.234h9.657v4.117H20.439v-4.117l9.658-8.234H20.439v-4.117Zm11.862,3.692a4.543,4.543,0,1,0,4.46,4.542A4.5,4.5,0,0,0,48.371,114.256Zm-39.794,0a4.543,4.543,0,1,0,4.46,4.542A4.5,4.5,0,0,0,8.576,114.256Zm79.589,0a4.453,4.453,0,0,0-3.957,2.446h7.914A4.453,4.453,0,0,0,88.165,114.256Z" transform="translate(0 -27.533)" fill-rule="evenodd" fill="url(#linear-gradient-2)"/>
      </g>
    </g>
  </g>
</svg>
