<?xml version="1.0" encoding="UTF-8"?><svg xmlns="http://www.w3.org/2000/svg" xmlns:xlink="http://www.w3.org/1999/xlink" viewBox="0 0 700 700"><defs><style>.d{fill:none;}.e,.f{fill:#ed1e79;}.g{fill:#fff;}.h{fill:#ff00cb;}.f,.i{mix-blend-mode:multiply;}.j{clip-path:url(#c);}.k{clip-path:url(#b);}.l{isolation:isolate;}</style><clipPath id="b"><path class="h" d="M463.7,245.25c3.4-62.13-18.62-125.4-66.08-172.86-88.58-88.58-232.21-88.58-320.79,0C32.04,117.17,9.91,176.02,10.41,234.71h-.38v453.67H463.7V245.25Z"/></clipPath><clipPath id="c"><path class="d" d="M627.24,302.79c-44.78-44.78-103.63-66.91-162.32-66.41v-.38h-.95c.73-58.99-21.38-118.21-66.39-163.22-88.58-88.58-232.21-88.58-320.79,0C32.01,117.55,9.88,176.4,10.38,235.09h-.38v453.67h1.26v.9H454.38c62.13,3.4,125.4-18.62,172.86-66.08,88.58-88.58,88.58-232.21,0-320.79Z"/></clipPath></defs><g class="l"><g id="a"><g><path class="f" d="M454.41,689.28c62.13,3.4,125.4-18.62,172.86-66.08,88.58-88.58,88.58-232.21,0-320.79-44.78-44.78-103.63-66.91-162.32-66.41h0l-453.67-.38v453.67H454.41Z"/><g><path class="h" d="M463.7,245.25c3.4-62.13-18.62-125.4-66.08-172.86-88.58-88.58-232.21-88.58-320.79,0C32.04,117.17,9.91,176.02,10.41,234.71h-.38v453.67H463.7V245.25Z"/><g class="k"><g class="i"><rect class="e" x="33.45" y="1.05" width="22.68" height="689.05"/><rect class="e" x="78.81" y="1.05" width="22.68" height="689.05"/><rect class="e" x="124.18" y="1.05" width="22.68" height="689.05"/><rect class="e" x="169.55" y="1.05" width="22.68" height="689.05"/><rect class="e" x="214.91" y="1.05" width="22.68" height="689.05"/><rect class="e" x="260.28" y="1.05" width="22.68" height="689.05"/><rect class="e" x="305.65" y="1.05" width="22.68" height="689.05"/><rect class="e" x="351.01" y="1.05" width="22.68" height="689.05"/><rect class="e" x="396.38" y="1.05" width="22.68" height="689.05"/><rect class="e" x="441.75" y="1.05" width="22.68" height="689.05"/></g></g></g><g class="j"><path class="g" d="M173.65,596.14c-.2-.2-.39-.4-.59-.6-9.25-9.72-11.93-23.98-6.83-36.39l111.99-272.54-151.24,58.3c-12.56,4.84-26.78,1.83-36.3-7.69L-62.65,183.86c-13.29-13.29-13.29-34.83,0-48.12,13.29-13.29,34.83-13.29,48.12,0L123.16,273.44l204.34-78.77c12.68-4.89,27.03-1.78,36.56,7.95,9.5,9.72,12.32,24.15,7.15,36.73l-113.08,275.2,165.77-58.77c12.37-4.38,26.15-1.27,35.43,8.01l172.2,172.2c13.29,13.29,13.29,34.83,0,48.12-13.29,13.29-34.83,13.29-48.12,0l-157.01-157.01-217.32,77.04c-12.39,4.39-26.17,1.25-35.42-8.01Z"/></g></g></g></g></svg>