<?xml version="1.0" encoding="utf-8"?>
<!-- Generator: Adobe Illustrator 26.2.0, SVG Export Plug-In . SVG Version: 6.00 Build 0)  -->
<svg version="1.1" id="Layer_1" xmlns="http://www.w3.org/2000/svg" xmlns:xlink="http://www.w3.org/1999/xlink" x="0px" y="0px"
	 viewBox="0 0 100 100" style="enable-background:new 0 0 100 100;" xml:space="preserve">
<style type="text/css">
	.st0{fill:url(#mark-logo-color_00000044874973490830723380000005844811976075318706_);}
</style>
<g>
	<g id="DUO-logo-unbanx">
		<g id="DUO-logo" transform="translate(0 0)">
			<g>
				<g id="Mask_Group_20" transform="translate(1.402)">
					
						<linearGradient id="mark-logo-color_00000082336886313991550450000009885871917574053529_" gradientUnits="userSpaceOnUse" x1="-245.4999" y1="466.68" x2="-244.4999" y2="466.68" gradientTransform="matrix(87.3 0 0 -100 21437.0957 46718)">
						<stop  offset="0" style="stop-color:#0141CF"/>
						<stop  offset="1" style="stop-color:#106FFB"/>
					</linearGradient>
					<path id="mark-logo-color" style="fill:url(#mark-logo-color_00000082336886313991550450000009885871917574053529_);" d="
						M76.8,0L76.8,0L62.2,8.6v34c0,0-0.1-0.1-0.1-0.1c-1-0.6-2-1.2-3.1-1.6c-4.6-2.2-9.5-3.3-14.6-3.3H35V9.2L19.5,0.6l-0.1,0
						L4.9,9.2v56.9c0,1.7,0.1,3.5,0.4,5.2c0.4,2.3,1,4.6,1.8,6.8c2.4,6.3,6.7,11.8,12.3,15.7c0.6,0.4,1.2,0.8,1.8,1.2
						c5,3.1,10.7,4.8,16.6,5c0.4,0,0.8,0,1.2,0h19c0.4,0,0.9,0,1.3,0H60c1.1,0,2.2-0.1,3.3-0.4c0.3,0,0.5-0.1,0.8-0.1
						c4.5-0.8,8.9-2.5,12.8-5c0.4-0.2,0.7-0.5,1.1-0.7c0.3-0.2,0.5-0.4,0.8-0.5c0,0,0,0,0.1,0c8.6-6.4,13.6-16.4,13.7-27.1V8.6
						L76.8,0z M76.8,2.1L76.8,2.1l12.7,7l-12.6,7l-0.1,0l-11.8-7L76.8,2.1z M64,10.7l11.8,6.9v40.7c0-0.1-0.1-0.2-0.1-0.3
						c-2.5-5.7-6.6-10.6-11.7-14.2V10.7z M35,54.4c0.4,0.1,0.8,0.3,1.1,0.4c0.3,0.1,0.5,0.2,0.8,0.3c0.7,0.3,1.3,0.6,2,1
						c5.6,3.3,9.1,9.1,9.6,15.6c0,0.5,0.1,0.9,0.1,1.4v10c0,0,0,0-0.1,0c0,0-0.1,0-0.1,0C40.4,80.4,35,72.8,35,64.4V54.4z M61.7,69
						c0.3,1.3,0.4,2.7,0.5,4c0,0.1,0,0.1,0,0.2v10L62,83.2l-0.7,0.2c-0.1,0-0.2,0.1-0.3,0.1c-1.3,0.4-2.7,0.6-4,0.6
						c-0.2,0-0.4,0-0.6,0h-1.6c-0.5,0-1,0-1.5-0.1c-0.2,0-0.3,0-0.5,0c-0.3,0-0.6-0.1-0.9-0.1c0,0-0.1,0-0.1,0c-0.1,0-0.2,0-0.3,0
						l0,0c-0.4-0.1-0.8-0.1-1.2-0.2V73.2c0-0.7,0-1.4-0.1-2.1c-0.6-6-3.6-11.4-8.3-15c-0.8-0.6-1.7-1.2-2.6-1.7
						c-0.1,0-0.2-0.1-0.3-0.1c-0.3-0.2-0.7-0.4-1.1-0.6c1.1-0.2,2.2-0.3,3.3-0.3h1c6.3,0,12.3,3,16,8c0,0,0,0,0,0
						C59.9,63.7,61.1,66.2,61.7,69L61.7,69z M19.5,2.7L19.5,2.7l12.7,7l-12.6,7l-0.1,0l-11.8-7L19.5,2.7z M38.3,98.2
						c-6.1-0.1-12-2-17-5.3c-0.6-0.4-1.2-0.8-1.8-1.3c-8-6-12.7-15.5-12.7-25.5V11.3L19,18.5v47.5c0,2,0.1,3.9,0.4,5.9
						c0.4,2.5,1,4.9,1.8,7.2c3.2,8.9,9.4,15.9,17.2,19C38.4,98.2,38.4,98.2,38.3,98.2z M53.7,97.6c-0.8,0.1-1.7,0.2-2.8,0.3
						c0,0-0.1,0-0.1,0c-0.2,0-0.3,0-0.5,0c-0.5,0-1.1,0.1-1.8,0.1l-1.2,0.1v0l-0.7,0c-0.1,0-0.1,0-0.2,0c-0.2,0-0.4,0-0.5-0.1
						c-0.1,0-0.2,0-0.4,0c-0.2,0-0.3,0-0.5,0c-0.3,0-0.6-0.1-0.9-0.1c0,0-0.1,0-0.1,0c-0.1,0-0.2,0-0.2,0c-0.4-0.1-0.8-0.1-1.2-0.2
						c-4.6-1-8.7-3.3-11.9-6.8c-5.1-5.2-8.4-11.8-9.4-19C21,70,20.9,68,20.9,66.1v-48L33,11.3l0.1-0.1v53.1
						c0,8.9,5.4,16.8,13.7,20.1c0.5,0.2,1.1,0.4,1.6,0.6v0c0.6,0.2,1.2,0.4,1.9,0.5v0c1.5,0.3,2.9,0.5,4.4,0.5h1
						c2.1,0,4.2-0.3,6.2-0.9c0,0,0.1,0,0.1,0v0.2c0,1.5-0.2,3-0.5,4.4c-0.5,2.3-1.7,4.3-3.4,5.9c-0.8,0.7-1.8,1.3-2.8,1.6
						C54.8,97.4,54.3,97.5,53.7,97.6L53.7,97.6z M68.8,95.9c-1.6,0.7-3.2,1.2-4.9,1.7c-0.2,0-0.4,0.1-0.5,0.1h0
						c-1.1,0.3-2.3,0.4-3.5,0.4h-2.4c2-1.1,3.6-2.7,4.6-4.8c0.1-0.3,0.3-0.5,0.4-0.8c0.8-2,1.3-4.1,1.4-6.2c0-0.4,0-1.3,0-1.9V73.2
						c0-0.7,0-1.4-0.1-2.1c-0.1-0.7-0.2-1.4-0.3-2.1c0-0.1,0-0.2-0.1-0.3c-0.3-1.4-0.7-2.7-1.3-4c0-0.1-0.1-0.2-0.1-0.3
						c-3.5-7.8-11.3-12.9-19.9-12.9h-1c-2,0-3.9,0.3-5.8,0.8c-0.1,0-0.3,0.1-0.4,0.1V39.4h9.4c6.3,0,12.4,1.8,17.7,5.3
						c0,0,0.1,0.1,0.1,0.1c0.6,0.4,1.1,0.8,1.7,1.2l0.1,0.1c5.7,4.4,9.9,10.6,11.7,17.6c0,0.2,0.1,0.3,0.1,0.5
						c0.5,2.1,0.8,4.2,0.8,6.3c0,0.1,0,0.3,0,0.4V82c0,0.4,0,0.8-0.1,1.2C76.3,85.7,74.7,93.6,68.8,95.9L68.8,95.9z M90.4,66.1
						c0,9.6-4.4,18.8-11.8,24.8c0,0,0,0-0.1,0l-1.8,1.4c-0.7,0.5-1.5,1-2.3,1.5c0,0,0.1-0.1,0.1-0.2c0.9-1.2,1.6-2.5,2.2-3.8
						c1.1-2.2,1.7-4.7,1.8-7.1V71.1c0-1.6-0.1-3.1-0.4-4.7c-0.1-0.9-0.3-1.7-0.5-2.6V17.7l12.6-7l0.1-0.1L90.4,66.1z"/>
				</g>
			</g>
		</g>
	</g>
</g>
</svg>
